Coordinates
version=1
nRows=26
nColumns=24
inDegrees=yes

Units are S.I. units (second, meters, Newtons, ...)
Angles are in degrees.

endheader
time	pelvis_tilt	pelvis_list	pelvis_rotation	pelvis_tx	pelvis_ty	pelvis_tz	hip_flexion_r	hip_adduction_r	hip_rotation_r	knee_angle_r	ankle_angle_r	subtalar_angle_r	mtp_angle_r	hip_flexion_l	hip_adduction_l	hip_rotation_l	knee_angle_l	ankle_angle_l	subtalar_angle_l	mtp_angle_l	lumbar_extension	lumbar_bending	lumbar_rotation
      0.81233333	     -7.41009977	     -1.58481936	     -0.93695672	     -0.05010238	      1.03478768	      0.33687458	     -6.01485691	      4.46158555	     -2.21847442	    -10.73763936	     19.23682007	      1.66939526	      4.06548497	     32.00161981	     -2.03850321	     -1.71411560	     -2.08752788	      8.22457866	      7.97699268	      3.89048791	    -11.66763062	      5.59495890	      5.05277268
      0.81650000	     -7.39413793	     -1.56942238	     -0.99688547	     -0.04404167	      1.03390030	      0.33677748	     -6.24807125	      4.40411114	     -2.16634117	    -11.04536109	     19.26064954	      1.71968428	      4.08356208	     32.09086528	     -1.96328598	     -1.68404668	     -2.51262428	      8.19512580	      7.85038999	      3.89294002	    -11.66291137	      5.48299020	      5.04415021
      0.82066667	     -7.39993264	     -1.53708831	     -1.07268346	     -0.03794216	      1.03297815	      0.33667671	     -6.40075932	      4.30728843	     -2.28095839	    -11.48495343	     19.44880324	      2.12732682	      4.18657395	     32.18508725	     -1.87817845	     -1.59850877	     -2.96891074	      8.12527731	      7.62005594	      3.91581603	    -11.60704304	      5.31186939	      5.08359337
      0.82483333	     -7.37032336	     -1.49837392	     -1.13170235	     -0.03180902	      1.03215787	      0.33656598	     -6.60569158	      4.20879408	     -2.34887818	    -11.89006286	     19.51701016	      2.38531652	      4.31030630	     32.24960139	     -1.78162626	     -1.51625761	     -3.50029180	      8.01476770	      7.40112393	      3.95018441	    -11.59904765	      5.15296473	      5.09091638
      0.82900000	     -7.34682033	     -1.46148295	     -1.19160680	     -0.02563707	      1.03138235	      0.33648632	     -6.81592560	      4.12162772	     -2.31871561	    -12.26860228	     19.47627064	      2.44122291	      4.34578314	     32.33265701	     -1.69336623	     -1.47000814	     -4.11420653	      7.88198231	      7.24351079	      3.95929426	    -11.58550771	      5.01528245	      5.08254237
      0.83316667	     -7.35595655	     -1.40961841	     -1.25506620	     -0.01942518	      1.03056152	      0.33636079	     -6.93620170	      3.99445553	     -2.47335396	    -12.77120410	     19.57447877	      2.88131573	      4.56055778	     32.42770633	     -1.58717887	     -1.31654531	     -4.72973055	      7.66034261	      6.92335458	      4.02750087	    -11.49824805	      4.82361895	      5.11719190
      0.83733333	     -7.35925837	     -1.35322814	     -1.31726438	     -0.01318338	      1.02979288	      0.33626271	     -7.06869688	      3.87040042	     -2.54433559	    -13.25935513	     19.57773660	      3.14186561	      4.81621392	     32.52454286	     -1.48074245	     -1.17661223	     -5.40920209	      7.42696022	      6.62708451	      4.11259176	    -11.43303604	      4.63187068	      5.11709106
      0.84150000	     -7.35850591	     -1.28414262	     -1.38440298	     -0.00690749	      1.02908598	      0.33617226	     -7.19213182	      3.72842527	     -2.61103604	    -13.77335272	     19.54203689	      3.39449812	      5.09037939	     32.61319103	     -1.36760265	     -1.03762088	     -6.12245228	      7.15867392	      6.33461561	      4.20157043	    -11.37071510	      4.41355005	      5.12055509
      0.84566667	     -7.35968552	     -1.21258272	     -1.45099955	     -0.00060629	      1.02841120	      0.33607100	     -7.29455174	      3.58014684	     -2.68713827	    -14.32736733	     19.45102651	      3.63809513	      5.35442022	     32.70501444	     -1.25361162	     -0.88874844	     -6.87088137	      6.86943337	      6.05419976	      4.28199273	    -11.31023158	      4.19074054	      5.11216087
      0.84983333	     -7.35391101	     -1.14687846	     -1.50054785	      0.00572434	      1.02778189	      0.33592451	     -7.39856457	      3.43450087	     -2.79025973	    -14.89214326	     19.38099407	      3.92171783	      5.74050686	     32.80078323	     -1.13709302	     -0.71962665	     -7.66747934	      6.52999880	      5.71107947	      4.39053206	    -11.23774795	      3.99942172	      5.11689719
      0.85400000	     -7.34073083	     -1.07894718	     -1.55619949	      0.01206505	      1.02722718	      0.33580026	     -7.49694136	      3.28840935	     -2.84045379	    -15.47055469	     19.09725236	      4.01798636	      9.26875156	     32.87689371	     -1.02436933	     -0.51926758	     -8.46222059	      6.15560658	      5.34936274	      5.33603158	    -11.19210885	      3.78290865	      5.08183523
      0.85816667	     -7.34159456	     -0.98836039	     -1.62921057	      0.01846113	      1.02669548	      0.33568700	     -7.54938758	      3.10478213	     -2.93177869	    -16.12217655	     18.91284960	      4.29448257	      9.31827677	     32.98295045	     -0.90882372	     -0.44562027	     -9.31942866	      5.82812070	      5.16755846	      5.33308108	    -11.11643755	      3.52747202	      5.08146466
      0.86233333	     -7.33914082	     -0.90391361	     -1.68753203	      0.02486077	      1.02620529	      0.33551216	     -7.58025209	      2.91990189	     -3.06691393	    -16.82279238	     18.71610622	      4.61464236	      9.42386636	     33.08680278	     -0.78840449	     -0.30432093	    -10.19307260	      5.47572778	      4.87196071	      5.33017181	    -11.03385067	      3.29615766	      5.08024104
      0.86650000	     -7.32710523	     -0.81224713	     -1.74057583	      0.03127966	      1.02578535	      0.33531898	     -7.60691552	      2.72550848	     -3.18427726	    -17.54727741	     18.47112520	      4.91001567	      9.58334487	     33.17913386	     -0.66037862	     -0.16176471	    -11.07886966	      5.12041029	      4.56701745	      5.32546763	    -10.97686217	      3.05075046	      5.06660299
      0.87066667	     -7.30032166	     -0.73003890	     -1.78355988	      0.03769372	      1.02543776	      0.33507434	     -7.62746195	      2.53571235	     -3.31224265	    -18.30340380	     18.12012343	      5.11225725	     12.41263648	     33.25018920	     -0.53207199	      0.04210003	    -11.96146982	      4.74973457	      4.15471223	      5.29851519	    -10.93397277	      2.83675020	      5.02975920
      0.87483333	     -7.26878592	     -0.62468684	     -1.84364936	      0.04415231	      1.02514963	      0.33485830	     -7.61808858	      2.30940617	     -3.45896378	    -19.13478884	     17.81496487	      5.43977437	     12.49220360	     33.32988484	     -0.40666818	      0.08604942	    -12.89360274	      4.46333275	      3.98382684	      5.28627623	    -10.89360380	      2.56886108	      5.02999763
      0.87900000	     -7.24138418	     -0.52029382	     -1.89690584	      0.05062274	      1.02490689	      0.33460584	     -7.57886067	      2.07848491	     -3.61336019	    -20.01039113	     17.44735251	      5.75447656	     12.63796805	     33.40380971	     -0.27675023	      0.17133277	    -13.81227391	      4.17092157	      3.73679844	      5.26491719	    -10.84082067	      2.30975928	      5.01417059
      0.88316667	     -7.14720191	     -0.39317754	     -1.93718586	      0.05709240	      1.02485286	      0.33429482	     -7.58457235	      1.80994113	     -3.81087549	    -20.92533028	     16.98541461	      6.07264785	     13.95536992	     33.36599621	     -0.10608703	      0.35234419	    -14.64982344	      3.84342941	      3.34900052	      5.09091649	    -10.89276346	      2.02567376	      4.99037377
      0.88733333	     -7.16828618	     -0.30354986	     -2.00465978	      0.06359212	      1.02462359	      0.33404200	     -7.43390324	      1.58722066	     -3.91934638	    -21.90141931	     16.53082294	      6.33670257	     14.11672876	     33.50556453	     -0.01513050	      0.31554291	    -15.62244126	      3.68260599	      3.27600189	      5.06571452	    -10.76534842	      1.79092335	      4.97043951
      0.89150000	     -7.04007005	     -0.17202973	     -2.03282688	      0.07007481	      1.02472275	      0.33366656	     -7.42219235	      1.29692529	     -4.14350567	    -22.90327940	     15.96816626	      6.68545722	     16.05270427	     33.42153524	      0.16393269	      0.45884981	    -16.45450161	      3.43517154	      2.92398534	      4.75086282	    -10.85602221	      1.49668522	      4.97737060
      0.89566667	     -7.03846129	     -0.06201903	     -2.11028348	      0.07659157	      1.02465687	      0.33342286	     -7.23400667	      1.04177218	     -4.22037049	    -23.97719499	     15.37335178	      6.90312047	     16.15467549	     33.49471698	      0.26385281	      0.39114600	    -17.35329244	      3.34470400	      2.90788693	      4.73188876	    -10.75619790	      1.22259094	      4.92037485
      0.89983333	     -6.95187449	      0.08334293	     -2.17039149	      0.08306981	      1.02477208	      0.33307844	     -7.08882113	      0.72064418	     -4.40671725	    -25.13451147	     14.78235250	      7.18606823	     18.91836785	     33.43661904	      0.42690796	      0.40952339	    -18.16614742	      3.21865097	      2.69112175	      4.19367514	    -10.77946631	      0.92161634	      4.91757136
      0.90400000	     -6.88310591	      0.18475920	     -2.20910040	      0.08955486	      1.02490886	      0.33272280	     -6.91805673	      0.45842016	     -4.54666617	    -26.28773528	     14.06032441	      7.43362725	     18.95904379	     33.40332286	      0.54564870	      0.39051467	    -18.99145478	      3.18074005	      2.66314265	      4.18435245	    -10.78095120	      0.67491669	      4.87107020
      0.90816667	     -6.82196432	      0.32642311	     -2.26137992	      0.09601384	      1.02506497	      0.33234168	     -6.67365321	      0.12781631	     -4.74082528	    -27.56673174	     13.44471043	      7.77823733	     19.09893320	     33.34745035	      0.70058884	      0.34501098	    -19.75540143	      3.13868328	      2.57839124	      4.15200415	    -10.76859343	      0.40070139	      4.84608371
      0.91233333	     -6.74591505	      0.46308855	     -2.31230783	      0.10246534	      1.02532341	      0.33199516	     -6.43098553	     -0.18697810	     -4.86136521	    -28.84592487	     12.66458203	      8.00861638	     19.21998738	     33.24218949	      0.85279863	      0.32603208	    -20.45356675	      3.13871106	      2.49732571	      4.12258544	    -10.77825941	      0.09792863	      4.80326942
      0.91650000	     -6.63493440	      0.63565385	     -2.35934187	      0.10885932	      1.02566947	      0.33158265	     -6.17503705	     -0.56341145	     -5.03322320	    -30.20692993	     11.90096667	      8.23742879	     22.04810597	     33.06258327	      1.05966317	      0.35035081	    -21.07166615	      3.11796465	      2.22673718	      3.40371841	    -10.83904992	     -0.23311116	      4.82153829
